<svg xmlns="http://www.w3.org/2000/svg" width="1157.828" height="5.487" viewBox="0 0 1157.828 5.487">
  <path id="wave" d="M160.624,603.562a7.193,7.193,0,0,1,9.39,0,7.2,7.2,0,0,0,9.391,0,7.193,7.193,0,0,1,9.39,0,7.194,7.194,0,0,0,9.39,0,7.193,7.193,0,0,1,9.39,0,7.2,7.2,0,0,0,9.391,0,7.193,7.193,0,0,1,9.39,0,7.194,7.194,0,0,0,9.39,0,7.193,7.193,0,0,1,9.39,0,7.2,7.2,0,0,0,9.391,0,7.193,7.193,0,0,1,9.39,0,7.194,7.194,0,0,0,9.39,0,7.193,7.193,0,0,1,9.39,0,7.194,7.194,0,0,0,9.39,0,7.2,7.2,0,0,1,9.391,0,7.194,7.194,0,0,0,9.39,0,7.193,7.193,0,0,1,9.39,0,7.194,7.194,0,0,0,9.39,0,7.2,7.2,0,0,1,9.391,0,7.194,7.194,0,0,0,9.39,0,7.193,7.193,0,0,1,9.39,0,7.194,7.194,0,0,0,9.39,0,7.2,7.2,0,0,1,9.391,0,7.194,7.194,0,0,0,9.39,0,7.193,7.193,0,0,1,9.39,0,7.194,7.194,0,0,0,9.39,0,7.193,7.193,0,0,1,9.39,0,7.2,7.2,0,0,0,9.392,0,7.193,7.193,0,0,1,9.39,0,7.194,7.194,0,0,0,9.39,0,7.193,7.193,0,0,1,9.39,0,7.2,7.2,0,0,0,9.391,0,7.193,7.193,0,0,1,9.39,0,7.194,7.194,0,0,0,9.39,0,7.193,7.193,0,0,1,9.39,0,7.2,7.2,0,0,0,9.391,0,7.193,7.193,0,0,1,9.39,0,7.194,7.194,0,0,0,9.39,0,7.193,7.193,0,0,1,9.39,0,7.2,7.2,0,0,0,9.391,0,7.193,7.193,0,0,1,9.39,0,7.194,7.194,0,0,0,9.39,0,7.193,7.193,0,0,1,9.39,0,7.194,7.194,0,0,0,9.39,0,7.2,7.2,0,0,1,9.391,0,7.194,7.194,0,0,0,9.39,0,7.193,7.193,0,0,1,9.39,0,7.194,7.194,0,0,0,9.39,0,7.2,7.2,0,0,1,9.391,0,7.194,7.194,0,0,0,9.39,0,7.193,7.193,0,0,1,9.39,0,7.194,7.194,0,0,0,9.39,0,7.2,7.2,0,0,1,9.391,0,7.194,7.194,0,0,0,9.39,0,7.193,7.193,0,0,1,9.39,0,7.194,7.194,0,0,0,9.39,0,7.193,7.193,0,0,1,9.39,0,7.2,7.2,0,0,0,9.391,0,7.193,7.193,0,0,1,9.39,0,7.194,7.194,0,0,0,9.39,0,7.193,7.193,0,0,1,9.39,0,7.2,7.2,0,0,0,9.391,0,7.193,7.193,0,0,1,9.39,0,7.194,7.194,0,0,0,9.39,0,7.193,7.193,0,0,1,9.39,0,7.2,7.2,0,0,0,9.39,0,7.2,7.2,0,0,1,9.391,0,7.194,7.194,0,0,0,9.39,0,7.193,7.193,0,0,1,9.39,0,7.194,7.194,0,0,0,9.39,0,7.2,7.2,0,0,1,9.391,0,7.194,7.194,0,0,0,9.39,0,7.193,7.193,0,0,1,9.39,0,7.194,7.194,0,0,0,9.39,0,7.193,7.193,0,0,1,9.39,0,7.2,7.2,0,0,0,9.391,0,7.193,7.193,0,0,1,9.39,0,7.194,7.194,0,0,0,9.39,0,7.193,7.193,0,0,1,9.39,0,7.2,7.2,0,0,0,9.391,0,7.193,7.193,0,0,1,9.39,0,7.194,7.194,0,0,0,9.39,0,7.193,7.193,0,0,1,9.39,0,7.2,7.2,0,0,0,9.391,0,7.193,7.193,0,0,1,9.39,0,7.194,7.194,0,0,0,9.39,0,7.193,7.193,0,0,1,9.39,0,7.2,7.2,0,0,0,9.39,0,7.2,7.2,0,0,1,9.391,0,7.194,7.194,0,0,0,9.39,0,7.193,7.193,0,0,1,9.39,0,7.194,7.194,0,0,0,9.39,0,7.2,7.2,0,0,1,9.392,0,7.194,7.194,0,0,0,9.39,0,7.194,7.194,0,0,1,9.39,0,7.194,7.194,0,0,0,9.39,0,7.193,7.193,0,0,1,9.39,0,7.2,7.2,0,0,0,9.391,0,7.193,7.193,0,0,1,9.39,0,7.2,7.2,0,0,0,9.392,0,7.193,7.193,0,0,1,9.39,0,7.194,7.194,0,0,0,9.39,0,7.193,7.193,0,0,1,9.39,0,7.2,7.2,0,0,0,9.391,0,7.194,7.194,0,0,1,9.39,0,7.194,7.194,0,0,0,9.389,0,7.193,7.193,0,0,1,9.39,0,7.2,7.2,0,0,0,9.392,0,7.193,7.193,0,0,1,9.39,0,7.194,7.194,0,0,0,9.39,0,7.193,7.193,0,0,1,9.39,0,7.194,7.194,0,0,0,9.39,0,7.2,7.2,0,0,1,9.392,0,7.194,7.194,0,0,0,9.39,0,7.194,7.194,0,0,1,9.39,0,7.194,7.194,0,0,0,9.39,0,7.2,7.2,0,0,1,9.391,0,7.194,7.194,0,0,0,9.39,0,7.193,7.193,0,0,1,9.39,0,7.2,7.2,0,0,0,9.39,0,7.2,7.2,0,0,1,9.391,0,7.194,7.194,0,0,0,9.39,0,7.193,7.193,0,0,1,9.39,0" transform="translate(-159.21 -600.818)" fill="none" stroke="#c1bebb" stroke-linecap="round" stroke-width="2"/>
</svg>